<svg width="43" height="40" viewBox="0 0 43 40" fill="none" xmlns="http://www.w3.org/2000/svg">
<path d="M20.4802 1.66031L1.40016 18.8603C1.09016 19.1403 0.910156 19.5403 0.910156 19.9603L0.910156 37.6103C0.910156 38.4303 1.57016 39.0903 2.39016 39.0903H16.6302C16.6602 39.0903 16.6802 39.0703 16.6802 39.0403V31.5103C16.6802 28.9703 18.5302 26.6903 21.0602 26.4703C23.9102 26.2203 26.3002 28.4603 26.3002 31.2603L26.3002 39.0403C26.3002 39.0703 26.3202 39.0903 26.3502 39.0903H39.8002C40.6202 39.0903 41.2802 38.4303 41.2802 37.6103L41.2802 19.9403C41.2802 19.5303 41.1102 19.1403 40.8102 18.8603L22.4802 1.68031C21.9202 1.15031 21.0502 1.15031 20.4802 1.66031Z" fill="#262626" stroke="#262626" stroke-width="1.5" stroke-miterlimit="10"/>
</svg>
