<svg width="38" height="38" viewBox="0 0 38 38" fill="none" xmlns="http://www.w3.org/2000/svg">
<path fill-rule="evenodd" clip-rule="evenodd" d="M20.7113 2.99963H12.1036L15.9955 8.79922L24.4706 8.68611L20.7113 2.99963ZM8 2.99963H9.69505L13.6083 8.83109L3 8.97267V7.99964C3 5.23821 5.23858 2.99963 8 2.99963ZM23.1088 2.99963L26.8471 8.65439L34.48 8.55252V7.99963C34.48 5.23821 32.2414 2.99963 29.48 2.99963H23.1088ZM3 29.4796V11.9729L34.48 11.5528V29.4796C34.48 32.2411 32.2414 34.4796 29.48 34.4796H8C5.23858 34.4796 3 32.2411 3 29.4796ZM8 -0.000366211C3.58172 -0.000366211 0 3.58136 0 7.99964V29.4796C0 33.8979 3.58172 37.4796 8 37.4796H29.48C33.8983 37.4796 37.48 33.8979 37.48 29.4796V7.99963C37.48 3.58136 33.8983 -0.000366211 29.48 -0.000366211H8ZM25.2666 23.7041C25.9271 23.3088 25.912 22.3466 25.2394 21.9723L16.4374 17.0733C15.7647 16.6989 14.9391 17.1931 14.9512 17.9628L15.1096 28.035C15.1217 28.8048 15.9624 29.2727 16.623 28.8774L25.2666 23.7041Z" fill="#262626"/>
</svg>
